<?xml version="1.0" encoding="UTF-8"?>
<svg id="Layer_2" data-name="Layer 2" xmlns="http://www.w3.org/2000/svg" viewBox="0 0 474.74 52.29">
  <defs>
    <style>
      .cls-1 {
        fill: #0b2338;
      }

      .cls-2 {
        fill: #0b5b94;
      }

      .cls-3 {
        fill: #0b2337;
      }
    </style>
  </defs>
  <g id="Layer_1-2" data-name="Layer 1">
    <g>
      <g>
        <g>
          <g>
            <rect class="cls-1" x="216.99" y=".3" width="1.3" height="51.68"/>
            <rect class="cls-1" x="217" y=".3" width="1.3" height="51.68"/>
          </g>
          <g>
            <polygon class="cls-2" points="44.9 .3 32.36 32.6 19.7 .3 9.68 .3 0 51.98 10.33 51.98 16.47 19.62 28.42 51.98 36.18 51.98 48.13 19.62 54.27 51.98 64.92 51.98 54.92 .3 44.9 .3"/>
            <rect class="cls-2" x="67.5" y=".3" width="9.68" height="51.68"/>
            <polygon class="cls-2" points="80.35 .3 80.35 8.69 91.73 8.69 91.73 51.98 101.35 51.98 101.35 8.69 112.72 8.69 112.72 .3 80.35 .3"/>
            <g>
              <path class="cls-2" d="M125.57,51.98h-9.68V.3h22.99c.95,0,2.5.3,4.65.92,2.16.64,4.31,2.06,6.47,4.26,2.15,2.24,3.22,5.47,3.22,9.68s-1.16,7.71-3.48,9.95c-2.32,2.28-4.67,3.72-7.03,4.32-2.37.65-4.11.98-5.24.98l17.19,21.57h-11.64l-15.76-21.32v-9.3l9.62-.06h.52c1.33,0,2.67-.49,4.01-1.48,1.46-1.11,2.19-2.66,2.19-4.65,0-1.81-.6-3.29-1.81-4.45-1.24-1.13-2.87-1.69-4.9-1.69h-11.31v42.96Z"/>
              <polygon class="cls-2" points="157.24 .3 187.14 .3 187.14 8.69 166.92 8.69 166.92 21.94 186.96 21.94 186.96 30.32 166.92 30.32 166.92 43.59 187.14 43.59 187.14 51.98 157.24 51.98 157.24 .3"/>
            </g>
          </g>
        </g>
        <g>
          <path class="cls-3" d="M263.14,5.7l-3.75.9c-.63-2.01-2.04-3.12-3.93-3.12-2.76,0-4.44,2.52-4.44,7.86s1.56,7.44,4.56,7.44c2.16,0,3.15-.96,4.23-3.21l3.84,1.02c-1.29,3.75-4.08,5.67-8.07,5.67-5.55,0-8.7-4.14-8.7-11.14s3.15-11.14,8.7-11.14c4.11,0,6.54,1.86,7.56,5.7Z"/>
          <path class="cls-3" d="M277.96,13.15v1.62h-9.42c.03,2.85,1.23,4.5,3.24,4.5,1.35,0,2.25-.39,3.48-1.86l2.7,1.68c-1.44,2.19-3.54,3.18-6.51,3.18-4.08,0-6.63-3.15-6.63-8.1s2.55-8.1,6.81-8.1,6.33,3.84,6.33,7.08ZM274.54,12.25c-.03-2.13-1.2-3.42-3-3.42s-2.91,1.17-3,3.42h6Z"/>
          <path class="cls-3" d="M293.08,11.2v10.77h-3.72v-10.26c0-1.71-.51-2.64-1.92-2.64-1.29,0-2.55.6-3.48,1.65v11.26h-3.72V6.36h3.42v1.68c1.89-1.35,3.36-1.98,4.8-1.98,3.03,0,4.62,2.01,4.62,5.13Z"/>
          <path class="cls-3" d="M300.47,1.2v5.16h3.06v3h-3.06v8.88c0,.69.33,1.02,1.35,1.02.57,0,1.23-.18,1.71-.3v3.06c-.99.12-1.89.24-2.94.24-2.64,0-3.84-1.29-3.84-3.57v-9.33h-2.16v-3h2.16V1.2h3.72Z"/>
          <path class="cls-3" d="M317.4,13.15v1.62h-9.42c.03,2.85,1.23,4.5,3.24,4.5,1.35,0,2.25-.39,3.48-1.86l2.7,1.68c-1.44,2.19-3.54,3.18-6.51,3.18-4.08,0-6.63-3.15-6.63-8.1s2.55-8.1,6.81-8.1,6.33,3.84,6.33,7.08ZM313.98,12.25c-.03-2.13-1.2-3.42-3-3.42s-2.91,1.17-3,3.42h6Z"/>
          <path class="cls-3" d="M327.43,9.99c-.09,0-.24-.03-.69-.03-1.71,0-3.45,2.01-3.45,2.58v9.42h-3.72V6.36h3.42v2.67h.06c.93-1.89,2.16-2.91,4.38-2.97v3.93Z"/>
          <path class="cls-3" d="M346.1,0v3h-.93c-2.04,0-2.19.75-2.19,1.86v1.5h3.15v3h-3.15v12.61h-3.72v-12.61h-2.16v-3h2.13v-2.04c0-3.09,1.26-4.32,4.29-4.32h2.58Z"/>
          <path class="cls-3" d="M360.33,14.17c0,4.92-2.55,8.1-6.78,8.1s-6.78-3.15-6.78-8.1,2.61-8.1,6.78-8.1,6.78,3.06,6.78,8.1ZM353.55,19.27c2.04,0,3.06-1.53,3.06-5.1s-.99-5.1-3.06-5.1-3.06,1.77-3.06,5.1c0,3.57,1.02,5.1,3.06,5.1Z"/>
          <path class="cls-3" d="M370.16,9.99c-.09,0-.24-.03-.69-.03-1.71,0-3.45,2.01-3.45,2.58v9.42h-3.72V6.36h3.42v2.67h.06c.93-1.89,2.16-2.91,4.38-2.97v3.93Z"/>
          <path class="cls-3" d="M395.55.27v3.48h-5.67v18.22h-4.14V3.75h-5.67V.27h15.49Z"/>
          <path class="cls-3" d="M401.04.3v7.74c1.53-1.32,3.03-1.98,4.5-1.98,3.03,0,4.62,2.01,4.62,5.1v10.81h-3.72v-10.26c0-1.71-.51-2.64-1.92-2.64-1.29,0-2.55.6-3.48,1.65v11.26h-3.72V.3h3.72Z"/>
          <path class="cls-3" d="M420.9,9.99c-.09,0-.24-.03-.69-.03-1.71,0-3.45,2.01-3.45,2.58v9.42h-3.72V6.36h3.42v2.67h.06c.93-1.89,2.16-2.91,4.38-2.97v3.93Z"/>
          <path class="cls-3" d="M434.73,13.15v1.62h-9.42c.03,2.85,1.23,4.5,3.24,4.5,1.35,0,2.25-.39,3.48-1.86l2.7,1.68c-1.44,2.19-3.54,3.18-6.51,3.18-4.08,0-6.63-3.15-6.63-8.1s2.55-8.1,6.81-8.1,6.33,3.84,6.33,7.08ZM431.31,12.25c-.03-2.13-1.2-3.42-3-3.42s-2.91,1.17-3,3.42h6Z"/>
          <path class="cls-3" d="M448.66,12.22v7.62c0,.51.03,1.41.3,2.13h-3.63l-.24-1.35c-1.59,1.11-3.15,1.65-4.83,1.65-2.64,0-4.26-1.77-4.26-4.14,0-3.54,2.94-5.43,8.94-6.12v-1.32c0-1.2-.96-1.86-2.31-1.86s-2.43.57-3.39,1.92l-2.4-1.83c1.02-1.62,3.3-2.85,5.67-2.85,4.44,0,6.15,1.8,6.15,6.15ZM441.51,19.51c.96,0,2.34-.72,3.42-1.65v-3.36c-4.29.69-5.22,1.8-5.22,3.18,0,1.17.75,1.83,1.8,1.83Z"/>
          <path class="cls-3" d="M455.9,1.2v5.16h3.06v3h-3.06v8.88c0,.69.33,1.02,1.35,1.02.57,0,1.23-.18,1.71-.3v3.06c-.99.12-1.89.24-2.94.24-2.64,0-3.84-1.29-3.84-3.57v-9.33h-2.16v-3h2.16V1.2h3.72Z"/>
          <path class="cls-3" d="M253.03,30.32v21.67h-4.14v-21.67h4.14Z"/>
          <path class="cls-3" d="M269.52,41.22v10.77h-3.72v-10.26c0-1.71-.51-2.64-1.92-2.64-1.29,0-2.55.6-3.48,1.65v11.25h-3.72v-15.61h3.42v1.68c1.89-1.35,3.36-1.98,4.8-1.98,3.03,0,4.62,2.01,4.62,5.13Z"/>
          <path class="cls-3" d="M280.02,30.02v3h-.93c-2.04,0-2.19.75-2.19,1.86v1.5h3.15v3h-3.15v12.61h-3.72v-12.61h-2.16v-3h2.13v-2.04c0-3.09,1.26-4.32,4.29-4.32h2.58Z"/>
          <path class="cls-3" d="M294.26,44.19c0,4.92-2.55,8.1-6.78,8.1s-6.78-3.15-6.78-8.1,2.61-8.1,6.78-8.1,6.78,3.06,6.78,8.1ZM287.48,49.29c2.04,0,3.06-1.53,3.06-5.1s-.99-5.1-3.06-5.1-3.06,1.77-3.06,5.1c0,3.57,1.02,5.1,3.06,5.1Z"/>
          <path class="cls-3" d="M304.08,40.01c-.09,0-.24-.03-.69-.03-1.71,0-3.45,2.01-3.45,2.58v9.42h-3.72v-15.61h3.42v2.67h.06c.93-1.89,2.16-2.91,4.38-2.97v3.93Z"/>
          <path class="cls-3" d="M317.59,38.36c1.65-1.68,3.3-2.28,5.34-2.28,2.43,0,3.87,1.8,3.87,4.56v11.34h-3.72v-10.99c0-1.26-.69-1.92-1.89-1.92-.84,0-2.01.69-3.09,1.68v11.22h-3.72v-10.99c0-1.29-.72-1.92-1.89-1.92-.81,0-2.01.69-3.09,1.68v11.22h-3.72v-15.61h3.39v1.68c1.53-1.44,2.73-1.98,4.68-1.98,1.71,0,3.15.84,3.84,2.28Z"/>
          <path class="cls-3" d="M342.07,43.17v1.62h-9.42c.03,2.85,1.23,4.5,3.24,4.5,1.35,0,2.25-.39,3.48-1.86l2.7,1.68c-1.44,2.19-3.54,3.18-6.51,3.18-4.08,0-6.63-3.15-6.63-8.1s2.55-8.1,6.81-8.1,6.33,3.84,6.33,7.08ZM338.65,42.27c-.03-2.13-1.2-3.42-3-3.42s-2.91,1.17-3,3.42h6Z"/>
          <path class="cls-3" d="M357.35,30.32v21.67h-3.15l-.18-1.68c-1.32,1.29-2.55,1.98-4.23,1.98-3.99,0-6.24-3.45-6.24-8.49,0-4.08,2.37-7.71,6.24-7.71,1.35,0,2.97.75,3.78,1.74h.06v-7.5h3.72ZM350.75,49.29c1.38,0,2.31-.75,2.88-1.38v-7.5c-.78-.72-1.68-1.32-2.91-1.32-2.16,0-3.45,1.74-3.45,5.1s1.29,5.1,3.48,5.1Z"/>
          <path class="cls-3" d="M377.71,30.32c6.09,0,9.67,3.72,9.67,10.83s-3.51,10.83-9.63,10.83h-7.26v-21.67h7.23ZM377.46,48.51c3.66,0,5.76-2.19,5.76-7.35s-2.1-7.35-5.79-7.35h-2.82v14.71h2.85Z"/>
          <path class="cls-3" d="M401.84,43.17v1.62h-9.42c.03,2.85,1.23,4.5,3.24,4.5,1.35,0,2.25-.39,3.48-1.86l2.7,1.68c-1.44,2.19-3.54,3.18-6.51,3.18-4.08,0-6.63-3.15-6.63-8.1s2.55-8.1,6.81-8.1,6.33,3.84,6.33,7.08ZM398.42,42.27c-.03-2.13-1.2-3.42-3-3.42s-2.91,1.17-3,3.42h6Z"/>
          <path class="cls-3" d="M411.64,30.02v3h-.93c-2.04,0-2.19.75-2.19,1.86v1.5h3.15v3h-3.15v12.61h-3.72v-12.61h-2.16v-3h2.13v-2.04c0-3.09,1.26-4.32,4.29-4.32h2.58Z"/>
          <path class="cls-3" d="M425.46,43.17v1.62h-9.42c.03,2.85,1.23,4.5,3.24,4.5,1.35,0,2.25-.39,3.48-1.86l2.7,1.68c-1.44,2.19-3.54,3.18-6.51,3.18-4.08,0-6.63-3.15-6.63-8.1s2.55-8.1,6.81-8.1,6.33,3.84,6.33,7.08ZM422.04,42.27c-.03-2.13-1.2-3.42-3-3.42s-2.91,1.17-3,3.42h6Z"/>
          <path class="cls-3" d="M440.58,41.22v10.77h-3.72v-10.26c0-1.71-.51-2.64-1.92-2.64-1.29,0-2.55.6-3.48,1.65v11.25h-3.72v-15.61h3.42v1.68c1.89-1.35,3.36-1.98,4.8-1.98,3.03,0,4.62,2.01,4.62,5.13Z"/>
          <path class="cls-3" d="M453.48,38.45l-2.34,2.04c-1.02-1.11-1.95-1.65-2.91-1.65-1.41,0-2.1.57-2.1,1.53,0,.87.84,1.44,2.79,2.07,3.81,1.26,5.01,2.76,5.01,5.19,0,2.97-2.13,4.65-5.73,4.65-2.49,0-4.5-1.08-5.91-3.15l2.49-1.86c1.11,1.53,2.31,2.25,3.63,2.25s2.22-.72,2.22-1.77c0-.9-.9-1.47-2.88-2.16-3.75-1.26-4.92-2.76-4.92-4.98,0-2.79,2.34-4.53,5.16-4.53,2.13,0,4.14.81,5.49,2.37Z"/>
          <path class="cls-3" d="M468.27,43.17v1.62h-9.42c.03,2.85,1.23,4.5,3.24,4.5,1.35,0,2.25-.39,3.48-1.86l2.7,1.68c-1.44,2.19-3.54,3.18-6.51,3.18-4.08,0-6.63-3.15-6.63-8.1s2.55-8.1,6.81-8.1,6.33,3.84,6.33,7.08ZM464.85,42.27c-.03-2.13-1.2-3.42-3-3.42s-2.91,1.17-3,3.42h6Z"/>
        </g>
      </g>
      <path class="cls-1" d="M471.48,36.08v.34h-.81v2.27h-.43v-2.27h-.8v-.34h2.04ZM472.53,36.08l.79,1.98.76-1.98h.66v2.61h-.43v-2.18h-.01l-.85,2.18h-.28l-.85-2.18h-.01v2.18h-.43v-2.61h.67Z"/>
    </g>
  </g>
</svg>